# xmcd
#
# Track frame offsets: 
#        150
#        25437
#        46417
#        66797
#        85787
#        103040
#        125735
#        148647
#        169930
#        193762
#
# Disc length: 2875 seconds
#
# Revision: 0
# Processed by: cddbd v1.5.2PL0 Copyright (c) Steve Scherf et al.
# Submitted via: ExactAudioCopy v1.0b3
#
DISCID=900b390a
DTITLE=Che Linh, Tuan Vu - Vung Truoc Mat
DYEAR=1990
DGENRE=
TTITLE0=Che Linh - Loi nguoi linh xa xoi
TTITLE1=Tuan Vu - Tinh ban Quang Trung
TTITLE2=Che Linh - Bac mau ao tran
TTITLE3=Tuan Vu - Thanh pho mua bay
TTITLE4=Che Linh - Vung truoc mat
TTITLE5=Che Linh - Ky niem mot mua he
TTITLE6=Tuan Vu - Thu cho vo hien
TTITLE7=Che Linh - Nhu mot con me
TTITLE8=Tuan Vu - Ve mien Tay
TTITLE9=Che Linh - Xot xa
EXTD=
EXTT0=
EXTT1=
EXTT2=
EXTT3=
EXTT4=
EXTT5=
EXTT6=
EXTT7=
EXTT8=
EXTT9=
PLAYORDER=
